# xmcd
#
# Track frame offsets:
#   150
#   13795
#   32907
#   42917
#   54742
#   65832
#   78070
#   95827
#   103637
#   118082
#   132895
#   151932
#   165545
#   184600
#   194815
#   206667
#   217797
#   230035
#   247890
#   255712
#   270335
#   285307
#
# Disc length: 4052 seconds
#
# Revision: 0
# Processed by: cddbd v1.5.1PL0 Copyright (c) Steve Scherf et al.
# Submitted via: uFREEDB ActiveX Control 1.5
#
DISCID=380fd216
DTITLE=Vencedores Por Cristo - Tanto Amor
DYEAR=1978
DGENRE=Gospel and Religious
TTITLE0=Quando a glória
TTITLE1=Você pode ter
TTITLE2=Tanto Amor
TTITLE3=Presente século
TTITLE4=Salmo 127
TTITLE5=Dois caminhos
TTITLE6=Pescador
TTITLE7=Levantai-vos
TTITLE8=O que você fará
TTITLE9=Caminho estreito
TTITLE10=Dia da angústia
TTITLE11=Play
TTITLE12=Play
TTITLE13=Play
TTITLE14=Play
TTITLE15=Play
TTITLE16=Play
TTITLE17=Play
TTITLE18=Play
TTITLE19=Play
TTITLE20=Play
TTITLE21=Play
EXTD=
EXTT0=
EXTT1=
EXTT2=
EXTT3=
EXTT4=
EXTT5=
EXTT6=
EXTT7=
EXTT8=
EXTT9=
EXTT10=
EXTT11=
EXTT12=
EXTT13=
EXTT14=
EXTT15=
EXTT16=
EXTT17=
EXTT18=
EXTT19=
EXTT20=
EXTT21=
PLAYORDER=
